<svg width="352" height="194" viewBox="0 0 352 194" fill="none" xmlns="http://www.w3.org/2000/svg">
<mask id="path-1-outside-1" maskUnits="userSpaceOnUse" x="-0.542969" y="-0.0332031" width="353" height="194" fill="black">
<rect fill="white" x="-0.542969" y="-0.0332031" width="353" height="194"/>
<path d="M36.8262 53.6543L34.5859 52.6553L38.0674 44.7236L55.1719 51.1719L51.2061 84.6543L35.8271 83.4131C36.3721 81.7581 37.139 79.3867 38.1279 76.2988C39.1169 73.2311 39.7526 71.223 40.0352 70.2744C38.7233 70.9202 36.0794 71.2432 32.1035 71.2432C28.2891 71.2432 24.9287 70.5267 22.0225 69.0938C19.1364 67.6406 16.765 65.1683 14.9082 61.6768C13.0514 58.165 11.9212 53.4222 11.5176 47.4482C11.4772 46.863 11.457 45.9749 11.457 44.7842C11.457 41.7972 11.8102 38.9313 12.5166 36.1865C13.2028 33.4417 14.333 30.9694 15.9072 28.7695C17.5016 26.5495 19.6914 24.7432 22.4766 23.3506C25.2617 21.958 28.6322 21.2314 32.5879 21.1709C35.2116 21.1709 37.7949 21.4837 40.3379 22.1094C42.8809 22.7148 45.2119 23.5726 47.3311 24.6826C49.4502 25.7725 51.2666 27.1146 52.7803 28.709C54.3141 30.2832 55.3132 31.9785 55.7773 33.7949L42.2148 42.665C41.3066 40.4046 38.2692 39.2744 33.1025 39.2744C31.932 39.2744 30.7311 40.112 29.5 41.7871C28.2689 43.4622 27.6533 45.3493 27.6533 47.4482C27.7542 49.0426 28.2285 50.5765 29.0762 52.0498C29.9238 53.5029 31.4274 54.2799 33.5869 54.3809C33.7686 54.3809 34.0814 54.3304 34.5254 54.2295C34.9896 54.1084 35.3932 54.0075 35.7363 53.9268C36.0996 53.8258 36.4629 53.735 36.8262 53.6543Z"/>
<path d="M74.2986 79.6895L60.6453 80.4463L57.9207 27.8613L53.4705 28.8604L54.9539 21.4131L70.3328 14.9648L74.2986 79.6895Z"/>
<path d="M106.594 39.2139C108.027 39.9808 109.188 41.0202 110.076 42.332C110.984 43.6237 111.64 45.0869 112.044 46.7217C112.467 48.3363 112.679 50.0215 112.679 51.7773C112.679 53.2305 112.558 54.6331 112.316 55.9854C112.094 57.3376 111.781 58.5788 111.378 59.709C110.974 60.8392 110.5 61.7979 109.955 62.585C108.683 64.4821 107.321 66.1169 105.868 67.4893C104.415 68.8617 102.931 69.9717 101.418 70.8193C99.9039 71.6468 98.4003 72.2523 96.9068 72.6357C95.4335 73.0394 93.9703 73.2412 92.5172 73.2412C90.8017 73.2412 89.1669 72.9688 87.6129 72.4238C86.079 71.8991 84.7672 71.2028 83.6773 70.335C81.8811 68.8415 80.4785 66.8333 79.4693 64.3105C78.4602 61.7676 77.9557 59.0833 77.9557 56.2578C77.9557 51.3939 79.3583 47.4684 82.1637 44.4814C84.5654 41.9183 87.0478 39.9909 89.6109 38.6992C92.1741 37.3874 94.7978 36.7314 97.482 36.7314C99.0563 36.7314 100.57 36.9333 102.023 37.3369C103.476 37.7204 105 38.346 106.594 39.2139ZM104.808 44.2998C104.465 45.8337 103.718 47.1859 102.568 48.3564C101.438 49.527 100.328 50.1123 99.2379 50.1123C98.693 50.1123 98.2086 49.971 97.7848 49.6885C97.1793 49.2041 96.8766 48.3564 96.8766 47.1455C96.8766 46.2171 97.1793 45.2988 97.7848 44.3906C98.4104 43.4824 99.3893 42.766 100.721 42.2412C99.3893 42.2412 98.0976 42.4935 96.8463 42.998C95.6152 43.5026 94.5556 44.1585 93.6676 44.9658C92.7796 45.7529 92.0631 46.651 91.5182 47.6602C90.9934 48.6491 90.7311 49.6481 90.7311 50.6572C90.7311 52.5342 91.5989 54.0277 93.3346 55.1377C94.9492 56.167 96.483 56.6816 97.9361 56.6816C99.3691 56.6816 100.641 56.2074 101.751 55.2588C102.861 54.29 103.708 53.0589 104.294 51.5654C104.879 50.0518 105.171 48.5583 105.171 47.085C105.171 46.0758 105.05 45.1475 104.808 44.2998Z"/>
<path d="M129.99 71.4551V72.4844L116.336 73.2412L116.821 27.8613L112.371 28.8604L113.854 21.4131L129.233 14.9648L129.475 36.3379C131.756 35.3893 133.966 34.915 136.105 34.915C139.072 34.915 142.129 35.7627 145.278 37.458C147.377 38.5882 148.911 40.2835 149.879 42.5439C150.868 44.7842 151.363 47.2868 151.363 50.0518C151.363 51.5049 151.242 52.9076 150.999 54.2598C150.777 55.5918 150.465 56.8229 150.061 57.9531C149.657 59.0833 149.183 60.042 148.638 60.8291C146.943 63.3317 145.106 65.3802 143.128 66.9746C141.171 68.569 139.193 69.7295 137.195 70.4561C135.197 71.1624 133.209 71.5156 131.231 71.5156C131.029 71.4954 130.837 71.4854 130.656 71.4854C130.494 71.4652 130.272 71.4551 129.99 71.4551ZM129.657 47.2666L129.717 50.4756C130.06 51.6462 130.827 52.625 132.018 53.4121C133.673 54.4414 135.207 54.9561 136.62 54.9561C138.052 54.9561 139.324 54.4818 140.434 53.5332C141.544 52.5645 142.392 51.3333 142.977 49.8398C143.562 48.3262 143.855 46.8226 143.855 45.3291C143.855 44.3604 143.734 43.432 143.492 42.5439C143.128 44.098 142.382 45.4603 141.251 46.6309C140.121 47.8014 139.011 48.3867 137.921 48.3867C137.356 48.3867 136.882 48.2354 136.498 47.9326C135.873 47.4886 135.56 46.641 135.56 45.3896C135.56 44.4411 135.853 43.5228 136.438 42.6348C137.043 41.7467 138.032 41.0404 139.405 40.5156C137.871 40.5156 136.418 40.8285 135.045 41.4541C133.673 42.0798 132.512 42.9173 131.564 43.9668C130.635 44.9961 130 46.096 129.657 47.2666Z"/>
<path d="M175.212 42.3623C174.102 42.5036 173.002 42.8568 171.912 43.4219C170.843 43.987 169.924 44.653 169.157 45.4199C168.39 46.1868 167.785 47.0345 167.341 47.9629C166.917 48.8711 166.705 49.7692 166.705 50.6572C166.705 52.4938 167.573 53.9873 169.309 55.1377C170.843 56.167 172.397 56.6816 173.971 56.6816C174.274 56.6816 174.687 56.6413 175.212 56.5605V50.1123C174.667 50.1123 174.183 49.971 173.759 49.6885C173.154 49.2041 172.851 48.2757 172.851 46.9033C172.851 44.9255 173.638 43.4118 175.212 42.3623ZM175.454 37.0342L188.109 31.3428L188.351 48.2656C188.512 49.3151 188.593 50.5059 188.593 51.8379C188.593 53.0085 188.553 53.8763 188.472 54.4414L188.835 72.999L175.212 73.7256V71.8789C172.992 72.7871 170.752 73.2412 168.491 73.2412C166.756 73.2412 165.121 72.9788 163.587 72.4541C162.073 71.9294 160.762 71.223 159.652 70.335C157.855 68.8415 156.453 66.8333 155.444 64.3105C154.434 61.7676 153.93 59.0833 153.93 56.2578C153.93 51.3939 155.333 47.4684 158.138 44.4814C160.56 41.9385 163.052 40.0111 165.615 38.6992C168.199 37.3874 170.833 36.7314 173.517 36.7314C174.264 36.7314 174.829 36.7516 175.212 36.792L175.454 37.0342Z"/>
<path d="M205.449 37.0342C207.689 36.2874 209.617 35.7223 211.231 35.3389C212.846 34.9352 214.39 34.7334 215.863 34.7334C217.841 34.7334 219.577 35.1673 221.07 36.0352C222.867 37.0645 224.804 38.8203 226.883 41.3027C228.962 43.7852 230.253 46.0859 230.758 48.2051C231.827 52.5039 232.362 56.2578 232.362 59.4668C232.362 61.1621 232.251 62.9482 232.029 64.8252C231.807 66.682 231.464 69.0736 231 72L218.346 72.7568C218.386 71.7477 218.406 70.2946 218.406 68.3975C218.406 60.486 217.316 53.7552 215.137 48.2051C214.289 46.1263 213.462 45.0869 212.654 45.0869C211.605 45.0869 210.444 46.54 209.173 49.4463C208.87 50.1527 208.618 50.96 208.416 51.8682C208.234 52.7764 208.093 53.7956 207.992 54.9258C207.911 56.056 207.871 57.388 207.871 58.9219C207.871 62.0299 208.053 65.9756 208.416 70.7588L193.552 72.4844C193.31 70.7083 193.088 68.9424 192.886 67.1865C192.684 65.4307 192.522 63.806 192.401 62.3125C192.3 60.7988 192.25 59.1742 192.25 57.4385C192.25 56.6917 192.29 55.612 192.371 54.1992L191.826 36.5498L203.724 35.0361L205.449 37.0342Z"/>
<path d="M241.438 18.9307L254.668 12.9668L254.456 33.3105L264.325 33.5527V45.208L254.093 45.3291C253.729 48.195 253.548 50.8893 253.548 53.4121C253.548 55.5111 253.669 57.2467 253.911 58.6191C254.113 59.7493 254.617 60.6172 255.425 61.2227C256.232 61.8281 257.17 62.1309 258.24 62.1309C259.431 62.1309 260.47 61.7777 261.358 61.0713C262.266 60.3649 262.721 59.3962 262.721 58.165C262.721 57.9834 262.68 57.6302 262.599 57.1055L272.499 50.6572C272.923 51.4443 273.447 52.7663 274.073 54.623C274.719 56.4798 275.042 58.5081 275.042 60.708C275.042 63.3519 274.346 65.7435 272.953 67.8828C271.56 70.0221 269.179 71.6468 265.808 72.7568C263.447 73.5238 261.217 73.9072 259.118 73.9072C255.949 73.9072 253.154 73.2109 250.732 71.8184C248.331 70.4258 246.332 68.7507 244.738 66.793C243.991 65.8848 243.406 64.3812 242.982 62.2822C242.579 60.1833 242.316 57.9935 242.195 55.7129C242.074 53.4323 242.013 51.1517 242.013 48.8711V45.4502L233.083 45.7227L230.843 32.0693L242.135 32.8262L241.438 18.9307Z"/>
<path d="M30.6201 116.587L33.1025 129.998C33.8291 129.372 34.929 128.343 36.4023 126.91C37.8958 125.477 39.3691 123.842 40.8223 122.006C42.2754 120.149 43.002 118.635 43.002 117.465C43.002 116.516 42.4268 115.891 41.2764 115.588C40.3076 115.386 39.4196 115.285 38.6123 115.285C37.583 115.285 36.5739 115.376 35.585 115.558C34.596 115.719 32.9411 116.062 30.6201 116.587ZM37.5527 145.861C40.6003 144.59 42.5983 143.339 43.5469 142.107C44.5156 140.856 45 139.706 45 138.656C45 137.788 44.3844 136.699 43.1533 135.387C41.9424 134.075 40.9837 133.348 40.2773 133.207C39.3691 134.115 38.5215 134.812 37.7344 135.296C36.9473 135.76 36.3923 136.053 36.0693 136.174L37.5527 145.861ZM55.4141 132.723C57.4727 135.972 58.502 139.05 58.502 141.956C58.502 145.528 57.1296 148.525 54.3848 150.947C51.6602 153.369 48.9255 155.115 46.1807 156.185C43.4359 157.254 41.3874 157.94 40.0352 158.243L29.6211 160.998L19.6914 121.31C19.5501 121.31 19.3079 121.491 18.9648 121.854C18.6419 122.218 18.2181 122.722 17.6934 123.368C17.1888 123.994 16.8659 124.377 16.7246 124.519C16.6641 124.519 16.4622 124.085 16.1191 123.217C15.7962 122.349 15.3522 121.148 14.7871 119.614C14.2422 118.06 13.6266 116.345 12.9404 114.468C12.234 112.571 11.7598 111.38 11.5176 110.896C13.9596 110.088 16.2503 109.341 18.3896 108.655C20.5492 107.969 22.8197 107.323 25.2012 106.718C27.5827 106.092 29.8532 105.598 32.0127 105.234C34.1924 104.871 36.3317 104.689 38.4307 104.689C40.0654 104.689 41.569 104.821 42.9414 105.083C44.3138 105.325 45.6055 105.739 46.8164 106.324C48.0475 106.91 49.1374 107.697 50.0859 108.686C51.0547 109.654 51.8418 110.805 52.4473 112.137C52.6895 112.682 52.8105 113.277 52.8105 113.923C52.8105 116.607 50.7822 120.391 46.7256 125.275C47.4723 125.376 48.6631 125.931 50.2979 126.94C51.9326 127.95 53.638 129.877 55.4141 132.723Z"/>
<path d="M84.8943 126.214C86.3273 126.981 87.4878 128.02 88.3758 129.332C89.284 130.624 89.9399 132.087 90.3436 133.722C90.7674 135.336 90.9793 137.021 90.9793 138.777C90.9793 140.23 90.8582 141.633 90.616 142.985C90.394 144.338 90.0812 145.579 89.6775 146.709C89.2739 147.839 88.7996 148.798 88.2547 149.585C86.9832 151.482 85.6209 153.117 84.1678 154.489C82.7146 155.862 81.2312 156.972 79.7176 157.819C78.2039 158.647 76.7003 159.252 75.2068 159.636C73.7335 160.039 72.2703 160.241 70.8172 160.241C69.1017 160.241 67.4669 159.969 65.9129 159.424C64.379 158.899 63.0672 158.203 61.9773 157.335C60.1811 155.841 58.7785 153.833 57.7693 151.311C56.7602 148.768 56.2557 146.083 56.2557 143.258C56.2557 138.394 57.6583 134.468 60.4637 131.481C62.8654 128.918 65.3478 126.991 67.9109 125.699C70.4741 124.387 73.0978 123.731 75.782 123.731C77.3562 123.731 78.8699 123.933 80.323 124.337C81.7762 124.72 83.2999 125.346 84.8943 126.214ZM83.1082 131.3C82.7651 132.834 82.0184 134.186 80.868 135.356C79.7378 136.527 78.6277 137.112 77.5379 137.112C76.993 137.112 76.5086 136.971 76.0848 136.688C75.4793 136.204 75.1766 135.356 75.1766 134.146C75.1766 133.217 75.4793 132.299 76.0848 131.391C76.7104 130.482 77.6893 129.766 79.0213 129.241C77.6893 129.241 76.3976 129.493 75.1463 129.998C73.9152 130.503 72.8556 131.159 71.9676 131.966C71.0796 132.753 70.3631 133.651 69.8182 134.66C69.2934 135.649 69.0311 136.648 69.0311 137.657C69.0311 139.534 69.8989 141.028 71.6346 142.138C73.2492 143.167 74.783 143.682 76.2361 143.682C77.6691 143.682 78.9406 143.207 80.0506 142.259C81.1606 141.29 82.0083 140.059 82.5936 138.565C83.1788 137.052 83.4715 135.558 83.4715 134.085C83.4715 133.076 83.3504 132.147 83.1082 131.3Z"/>
<path d="M122.094 126.214C123.527 126.981 124.688 128.02 125.576 129.332C126.484 130.624 127.14 132.087 127.544 133.722C127.967 135.336 128.179 137.021 128.179 138.777C128.179 140.23 128.058 141.633 127.816 142.985C127.594 144.338 127.281 145.579 126.878 146.709C126.474 147.839 126 148.798 125.455 149.585C124.183 151.482 122.821 153.117 121.368 154.489C119.915 155.862 118.431 156.972 116.918 157.819C115.404 158.647 113.9 159.252 112.407 159.636C110.934 160.039 109.47 160.241 108.017 160.241C106.302 160.241 104.667 159.969 103.113 159.424C101.579 158.899 100.267 158.203 99.1773 157.335C97.3811 155.841 95.9785 153.833 94.9693 151.311C93.9602 148.768 93.4557 146.083 93.4557 143.258C93.4557 138.394 94.8583 134.468 97.6637 131.481C100.065 128.918 102.548 126.991 105.111 125.699C107.674 124.387 110.298 123.731 112.982 123.731C114.556 123.731 116.07 123.933 117.523 124.337C118.976 124.72 120.5 125.346 122.094 126.214ZM120.308 131.3C119.965 132.834 119.218 134.186 118.068 135.356C116.938 136.527 115.828 137.112 114.738 137.112C114.193 137.112 113.709 136.971 113.285 136.688C112.679 136.204 112.377 135.356 112.377 134.146C112.377 133.217 112.679 132.299 113.285 131.391C113.91 130.482 114.889 129.766 116.221 129.241C114.889 129.241 113.598 129.493 112.346 129.998C111.115 130.503 110.056 131.159 109.168 131.966C108.28 132.753 107.563 133.651 107.018 134.66C106.493 135.649 106.231 136.648 106.231 137.657C106.231 139.534 107.099 141.028 108.835 142.138C110.449 143.167 111.983 143.682 113.436 143.682C114.869 143.682 116.141 143.207 117.251 142.259C118.361 141.29 119.208 140.059 119.794 138.565C120.379 137.052 120.671 135.558 120.671 134.085C120.671 133.076 120.55 132.147 120.308 131.3Z"/>
<path d="M137.528 105.931L150.757 99.9668L150.545 120.311L160.414 120.553V132.208L150.182 132.329C149.819 135.195 149.637 137.889 149.637 140.412C149.637 142.511 149.758 144.247 150 145.619C150.202 146.749 150.707 147.617 151.514 148.223C152.321 148.828 153.26 149.131 154.329 149.131C155.52 149.131 156.56 148.778 157.448 148.071C158.356 147.365 158.81 146.396 158.81 145.165C158.81 144.983 158.77 144.63 158.689 144.105L168.588 137.657C169.012 138.444 169.537 139.766 170.163 141.623C170.808 143.48 171.131 145.508 171.131 147.708C171.131 150.352 170.435 152.743 169.042 154.883C167.65 157.022 165.268 158.647 161.898 159.757C159.537 160.524 157.306 160.907 155.207 160.907C152.039 160.907 149.244 160.211 146.822 158.818C144.42 157.426 142.422 155.751 140.828 153.793C140.081 152.885 139.496 151.381 139.072 149.282C138.668 147.183 138.406 144.993 138.285 142.713C138.163 140.432 138.103 138.152 138.103 135.871V132.45L129.172 132.723L126.932 119.069L138.224 119.826L137.528 105.931Z"/>
<path d="M203.003 123.035C204.295 123.863 205.455 125.013 206.485 126.486C207.534 127.939 208.341 129.292 208.906 130.543C209.472 131.774 209.845 132.662 210.027 133.207L198.795 135.689C198.613 134.68 198.079 134.014 197.191 133.691C196.303 133.368 195.374 133.207 194.405 133.207C189.279 133.691 186.716 136.749 186.716 142.38C186.857 146.84 188.26 149.323 190.924 149.827C192.196 149.827 193.346 149.514 194.375 148.889C195.404 148.263 196.282 147.436 197.009 146.406C197.756 145.357 198.371 144.186 198.856 142.895L210.087 145.165C209.966 145.569 209.673 146.376 209.209 147.587C208.684 148.939 207.453 150.745 205.516 153.006C203.599 155.266 201.459 156.851 199.098 157.759C196.252 158.869 193.427 159.424 190.621 159.424C186.141 159.424 182.165 157.961 178.694 155.034C177.119 153.662 175.979 152.067 175.273 150.251C174.546 148.435 174.183 146.517 174.183 144.499C174.183 142.4 174.475 140.331 175.061 138.293C175.646 136.255 176.363 134.398 177.21 132.723C178.32 130.543 179.541 128.686 180.873 127.152C182.205 125.598 183.598 124.337 185.051 123.368C186.524 122.379 188.028 121.653 189.562 121.188C191.096 120.724 192.64 120.492 194.194 120.492C197.382 120.492 200.319 121.34 203.003 123.035Z"/>
<path d="M234.088 129.362C232.978 129.504 231.878 129.857 230.788 130.422C229.718 130.987 228.8 131.653 228.033 132.42C227.266 133.187 226.661 134.035 226.217 134.963C225.793 135.871 225.581 136.769 225.581 137.657C225.581 139.494 226.449 140.987 228.185 142.138C229.718 143.167 231.272 143.682 232.847 143.682C233.149 143.682 233.563 143.641 234.088 143.561V137.112C233.543 137.112 233.059 136.971 232.635 136.688C232.029 136.204 231.727 135.276 231.727 133.903C231.727 131.925 232.514 130.412 234.088 129.362ZM234.33 124.034L246.984 118.343L247.227 135.266C247.388 136.315 247.469 137.506 247.469 138.838C247.469 140.008 247.428 140.876 247.348 141.441L247.711 159.999L234.088 160.726V158.879C231.868 159.787 229.628 160.241 227.367 160.241C225.632 160.241 223.997 159.979 222.463 159.454C220.949 158.929 219.637 158.223 218.527 157.335C216.731 155.841 215.328 153.833 214.319 151.311C213.31 148.768 212.806 146.083 212.806 143.258C212.806 138.394 214.208 134.468 217.014 131.481C219.436 128.938 221.928 127.011 224.491 125.699C227.075 124.387 229.708 123.731 232.393 123.731C233.139 123.731 233.704 123.752 234.088 123.792L234.33 124.034Z"/>
<path d="M278.584 124.276C283.811 122.621 287.696 121.794 290.239 121.794C292.257 121.794 293.993 122.208 295.446 123.035C297.242 124.064 299.18 125.82 301.259 128.303C303.337 130.785 304.629 133.086 305.134 135.205C306.203 139.504 306.738 143.258 306.738 146.467C306.738 148.162 306.627 149.948 306.405 151.825C306.183 153.682 305.84 156.074 305.376 159L292.721 159.757C292.762 158.748 292.782 157.295 292.782 155.397C292.782 147.486 291.692 140.755 289.513 135.205C289.109 134.216 288.635 133.439 288.09 132.874C287.545 132.309 287.06 132.026 286.637 132.026C286.193 132.026 285.971 132.339 285.971 132.965C285.971 133.328 286.011 133.641 286.092 133.903C286.233 134.226 286.374 134.66 286.515 135.205C287.605 139.585 288.15 143.339 288.15 146.467C288.15 148.001 288.049 149.615 287.847 151.311C287.646 152.986 287.292 155.549 286.788 159L274.134 159.757C274.174 158.748 274.194 157.295 274.194 155.397C274.194 147.466 273.094 140.735 270.894 135.205C270.632 134.559 270.43 133.883 270.289 133.177C270.148 132.45 270.047 132.087 269.986 132.087C269.905 132.087 269.673 132.561 269.29 133.51C268.906 134.458 268.493 135.437 268.049 136.446C267.746 137.153 267.494 137.96 267.292 138.868C267.11 139.776 266.969 140.796 266.868 141.926C266.787 143.056 266.747 144.388 266.747 145.922C266.747 149.03 266.929 152.976 267.292 157.759L252.428 159.484C252.185 157.708 251.963 155.942 251.762 154.187C251.56 152.431 251.398 150.806 251.277 149.312C251.176 147.799 251.126 146.174 251.126 144.438C251.126 143.692 251.166 142.612 251.247 141.199L250.702 123.55L262.599 122.036L264.325 124.034C267.514 123.005 270.117 122.49 272.136 122.49C274.376 122.49 276.525 123.086 278.584 124.276Z"/>
<path d="M323.261 160.181L324.745 184.551L311.122 185.277L309.063 145.982V145.68C308.982 144.671 308.942 143.924 308.942 143.439L308.397 132.723L303.917 133.691L305.4 126.274L320.779 119.826L321.172 125.396C323.574 124.246 326.006 123.671 328.468 123.671C331.455 123.671 334.493 124.519 337.581 126.214C339.014 126.981 340.174 128.02 341.062 129.332C341.97 130.624 342.626 132.087 343.03 133.722C343.454 135.336 343.666 137.021 343.666 138.777C343.666 140.23 343.545 141.633 343.302 142.985C343.08 144.338 342.768 145.579 342.364 146.709C341.96 147.839 341.486 148.798 340.941 149.585C339.246 152.128 337.399 154.187 335.401 155.761C333.403 157.335 331.395 158.465 329.377 159.151C327.358 159.838 325.32 160.181 323.261 160.181ZM321.838 136.567C321.838 137.698 322.091 138.808 322.595 139.897C323.12 140.967 323.695 141.714 324.321 142.138C325.935 143.167 327.469 143.682 328.922 143.682C330.355 143.682 331.627 143.207 332.737 142.259C333.847 141.29 334.695 140.059 335.28 138.565C335.865 137.052 336.158 135.558 336.158 134.085C336.158 133.076 336.037 132.147 335.795 131.3C335.451 132.834 334.705 134.186 333.554 135.356C332.424 136.527 331.314 137.112 330.224 137.112C329.679 137.112 329.195 136.971 328.771 136.688C328.166 136.204 327.863 135.356 327.863 134.146C327.863 133.217 328.166 132.299 328.771 131.391C329.397 130.482 330.376 129.766 331.708 129.241C330.073 129.241 328.559 129.594 327.167 130.301C325.774 130.987 324.593 131.905 323.625 133.056C322.676 134.206 322.081 135.377 321.838 136.567Z"/>
</mask>
<path d="M36.8262 53.6543L34.5859 52.6553L38.0674 44.7236L55.1719 51.1719L51.2061 84.6543L35.8271 83.4131C36.3721 81.7581 37.139 79.3867 38.1279 76.2988C39.1169 73.2311 39.7526 71.223 40.0352 70.2744C38.7233 70.9202 36.0794 71.2432 32.1035 71.2432C28.2891 71.2432 24.9287 70.5267 22.0225 69.0938C19.1364 67.6406 16.765 65.1683 14.9082 61.6768C13.0514 58.165 11.9212 53.4222 11.5176 47.4482C11.4772 46.863 11.457 45.9749 11.457 44.7842C11.457 41.7972 11.8102 38.9313 12.5166 36.1865C13.2028 33.4417 14.333 30.9694 15.9072 28.7695C17.5016 26.5495 19.6914 24.7432 22.4766 23.3506C25.2617 21.958 28.6322 21.2314 32.5879 21.1709C35.2116 21.1709 37.7949 21.4837 40.3379 22.1094C42.8809 22.7148 45.2119 23.5726 47.3311 24.6826C49.4502 25.7725 51.2666 27.1146 52.7803 28.709C54.3141 30.2832 55.3132 31.9785 55.7773 33.7949L42.2148 42.665C41.3066 40.4046 38.2692 39.2744 33.1025 39.2744C31.932 39.2744 30.7311 40.112 29.5 41.7871C28.2689 43.4622 27.6533 45.3493 27.6533 47.4482C27.7542 49.0426 28.2285 50.5765 29.0762 52.0498C29.9238 53.5029 31.4274 54.2799 33.5869 54.3809C33.7686 54.3809 34.0814 54.3304 34.5254 54.2295C34.9896 54.1084 35.3932 54.0075 35.7363 53.9268C36.0996 53.8258 36.4629 53.735 36.8262 53.6543Z" fill="#FFCC03"/>
<path d="M74.2986 79.6895L60.6453 80.4463L57.9207 27.8613L53.4705 28.8604L54.9539 21.4131L70.3328 14.9648L74.2986 79.6895Z" fill="#FFCC03"/>
<path d="M106.594 39.2139C108.027 39.9808 109.188 41.0202 110.076 42.332C110.984 43.6237 111.64 45.0869 112.044 46.7217C112.467 48.3363 112.679 50.0215 112.679 51.7773C112.679 53.2305 112.558 54.6331 112.316 55.9854C112.094 57.3376 111.781 58.5788 111.378 59.709C110.974 60.8392 110.5 61.7979 109.955 62.585C108.683 64.4821 107.321 66.1169 105.868 67.4893C104.415 68.8617 102.931 69.9717 101.418 70.8193C99.9039 71.6468 98.4003 72.2523 96.9068 72.6357C95.4335 73.0394 93.9703 73.2412 92.5172 73.2412C90.8017 73.2412 89.1669 72.9688 87.6129 72.4238C86.079 71.8991 84.7672 71.2028 83.6773 70.335C81.8811 68.8415 80.4785 66.8333 79.4693 64.3105C78.4602 61.7676 77.9557 59.0833 77.9557 56.2578C77.9557 51.3939 79.3583 47.4684 82.1637 44.4814C84.5654 41.9183 87.0478 39.9909 89.6109 38.6992C92.1741 37.3874 94.7978 36.7314 97.482 36.7314C99.0563 36.7314 100.57 36.9333 102.023 37.3369C103.476 37.7204 105 38.346 106.594 39.2139ZM104.808 44.2998C104.465 45.8337 103.718 47.1859 102.568 48.3564C101.438 49.527 100.328 50.1123 99.2379 50.1123C98.693 50.1123 98.2086 49.971 97.7848 49.6885C97.1793 49.2041 96.8766 48.3564 96.8766 47.1455C96.8766 46.2171 97.1793 45.2988 97.7848 44.3906C98.4104 43.4824 99.3893 42.766 100.721 42.2412C99.3893 42.2412 98.0976 42.4935 96.8463 42.998C95.6152 43.5026 94.5556 44.1585 93.6676 44.9658C92.7796 45.7529 92.0631 46.651 91.5182 47.6602C90.9934 48.6491 90.7311 49.6481 90.7311 50.6572C90.7311 52.5342 91.5989 54.0277 93.3346 55.1377C94.9492 56.167 96.483 56.6816 97.9361 56.6816C99.3691 56.6816 100.641 56.2074 101.751 55.2588C102.861 54.29 103.708 53.0589 104.294 51.5654C104.879 50.0518 105.171 48.5583 105.171 47.085C105.171 46.0758 105.05 45.1475 104.808 44.2998Z" fill="#FFCC03"/>
<path d="M129.99 71.4551V72.4844L116.336 73.2412L116.821 27.8613L112.371 28.8604L113.854 21.4131L129.233 14.9648L129.475 36.3379C131.756 35.3893 133.966 34.915 136.105 34.915C139.072 34.915 142.129 35.7627 145.278 37.458C147.377 38.5882 148.911 40.2835 149.879 42.5439C150.868 44.7842 151.363 47.2868 151.363 50.0518C151.363 51.5049 151.242 52.9076 150.999 54.2598C150.777 55.5918 150.465 56.8229 150.061 57.9531C149.657 59.0833 149.183 60.042 148.638 60.8291C146.943 63.3317 145.106 65.3802 143.128 66.9746C141.171 68.569 139.193 69.7295 137.195 70.4561C135.197 71.1624 133.209 71.5156 131.231 71.5156C131.029 71.4954 130.837 71.4854 130.656 71.4854C130.494 71.4652 130.272 71.4551 129.99 71.4551ZM129.657 47.2666L129.717 50.4756C130.06 51.6462 130.827 52.625 132.018 53.4121C133.673 54.4414 135.207 54.9561 136.62 54.9561C138.052 54.9561 139.324 54.4818 140.434 53.5332C141.544 52.5645 142.392 51.3333 142.977 49.8398C143.562 48.3262 143.855 46.8226 143.855 45.3291C143.855 44.3604 143.734 43.432 143.492 42.5439C143.128 44.098 142.382 45.4603 141.251 46.6309C140.121 47.8014 139.011 48.3867 137.921 48.3867C137.356 48.3867 136.882 48.2354 136.498 47.9326C135.873 47.4886 135.56 46.641 135.56 45.3896C135.56 44.4411 135.853 43.5228 136.438 42.6348C137.043 41.7467 138.032 41.0404 139.405 40.5156C137.871 40.5156 136.418 40.8285 135.045 41.4541C133.673 42.0798 132.512 42.9173 131.564 43.9668C130.635 44.9961 130 46.096 129.657 47.2666Z" fill="#FFCC03"/>
<path d="M175.212 42.3623C174.102 42.5036 173.002 42.8568 171.912 43.4219C170.843 43.987 169.924 44.653 169.157 45.4199C168.39 46.1868 167.785 47.0345 167.341 47.9629C166.917 48.8711 166.705 49.7692 166.705 50.6572C166.705 52.4938 167.573 53.9873 169.309 55.1377C170.843 56.167 172.397 56.6816 173.971 56.6816C174.274 56.6816 174.687 56.6413 175.212 56.5605V50.1123C174.667 50.1123 174.183 49.971 173.759 49.6885C173.154 49.2041 172.851 48.2757 172.851 46.9033C172.851 44.9255 173.638 43.4118 175.212 42.3623ZM175.454 37.0342L188.109 31.3428L188.351 48.2656C188.512 49.3151 188.593 50.5059 188.593 51.8379C188.593 53.0085 188.553 53.8763 188.472 54.4414L188.835 72.999L175.212 73.7256V71.8789C172.992 72.7871 170.752 73.2412 168.491 73.2412C166.756 73.2412 165.121 72.9788 163.587 72.4541C162.073 71.9294 160.762 71.223 159.652 70.335C157.855 68.8415 156.453 66.8333 155.444 64.3105C154.434 61.7676 153.93 59.0833 153.93 56.2578C153.93 51.3939 155.333 47.4684 158.138 44.4814C160.56 41.9385 163.052 40.0111 165.615 38.6992C168.199 37.3874 170.833 36.7314 173.517 36.7314C174.264 36.7314 174.829 36.7516 175.212 36.792L175.454 37.0342Z" fill="#FFCC03"/>
<path d="M205.449 37.0342C207.689 36.2874 209.617 35.7223 211.231 35.3389C212.846 34.9352 214.39 34.7334 215.863 34.7334C217.841 34.7334 219.577 35.1673 221.07 36.0352C222.867 37.0645 224.804 38.8203 226.883 41.3027C228.962 43.7852 230.253 46.0859 230.758 48.2051C231.827 52.5039 232.362 56.2578 232.362 59.4668C232.362 61.1621 232.251 62.9482 232.029 64.8252C231.807 66.682 231.464 69.0736 231 72L218.346 72.7568C218.386 71.7477 218.406 70.2946 218.406 68.3975C218.406 60.486 217.316 53.7552 215.137 48.2051C214.289 46.1263 213.462 45.0869 212.654 45.0869C211.605 45.0869 210.444 46.54 209.173 49.4463C208.87 50.1527 208.618 50.96 208.416 51.8682C208.234 52.7764 208.093 53.7956 207.992 54.9258C207.911 56.056 207.871 57.388 207.871 58.9219C207.871 62.0299 208.053 65.9756 208.416 70.7588L193.552 72.4844C193.31 70.7083 193.088 68.9424 192.886 67.1865C192.684 65.4307 192.522 63.806 192.401 62.3125C192.3 60.7988 192.25 59.1742 192.25 57.4385C192.25 56.6917 192.29 55.612 192.371 54.1992L191.826 36.5498L203.724 35.0361L205.449 37.0342Z" fill="#FFCC03"/>
<path d="M241.438 18.9307L254.668 12.9668L254.456 33.3105L264.325 33.5527V45.208L254.093 45.3291C253.729 48.195 253.548 50.8893 253.548 53.4121C253.548 55.5111 253.669 57.2467 253.911 58.6191C254.113 59.7493 254.617 60.6172 255.425 61.2227C256.232 61.8281 257.17 62.1309 258.24 62.1309C259.431 62.1309 260.47 61.7777 261.358 61.0713C262.266 60.3649 262.721 59.3962 262.721 58.165C262.721 57.9834 262.68 57.6302 262.599 57.1055L272.499 50.6572C272.923 51.4443 273.447 52.7663 274.073 54.623C274.719 56.4798 275.042 58.5081 275.042 60.708C275.042 63.3519 274.346 65.7435 272.953 67.8828C271.56 70.0221 269.179 71.6468 265.808 72.7568C263.447 73.5238 261.217 73.9072 259.118 73.9072C255.949 73.9072 253.154 73.2109 250.732 71.8184C248.331 70.4258 246.332 68.7507 244.738 66.793C243.991 65.8848 243.406 64.3812 242.982 62.2822C242.579 60.1833 242.316 57.9935 242.195 55.7129C242.074 53.4323 242.013 51.1517 242.013 48.8711V45.4502L233.083 45.7227L230.843 32.0693L242.135 32.8262L241.438 18.9307Z" fill="#FFCC03"/>
<path d="M30.6201 116.587L33.1025 129.998C33.8291 129.372 34.929 128.343 36.4023 126.91C37.8958 125.477 39.3691 123.842 40.8223 122.006C42.2754 120.149 43.002 118.635 43.002 117.465C43.002 116.516 42.4268 115.891 41.2764 115.588C40.3076 115.386 39.4196 115.285 38.6123 115.285C37.583 115.285 36.5739 115.376 35.585 115.558C34.596 115.719 32.9411 116.062 30.6201 116.587ZM37.5527 145.861C40.6003 144.59 42.5983 143.339 43.5469 142.107C44.5156 140.856 45 139.706 45 138.656C45 137.788 44.3844 136.699 43.1533 135.387C41.9424 134.075 40.9837 133.348 40.2773 133.207C39.3691 134.115 38.5215 134.812 37.7344 135.296C36.9473 135.76 36.3923 136.053 36.0693 136.174L37.5527 145.861ZM55.4141 132.723C57.4727 135.972 58.502 139.05 58.502 141.956C58.502 145.528 57.1296 148.525 54.3848 150.947C51.6602 153.369 48.9255 155.115 46.1807 156.185C43.4359 157.254 41.3874 157.94 40.0352 158.243L29.6211 160.998L19.6914 121.31C19.5501 121.31 19.3079 121.491 18.9648 121.854C18.6419 122.218 18.2181 122.722 17.6934 123.368C17.1888 123.994 16.8659 124.377 16.7246 124.519C16.6641 124.519 16.4622 124.085 16.1191 123.217C15.7962 122.349 15.3522 121.148 14.7871 119.614C14.2422 118.06 13.6266 116.345 12.9404 114.468C12.234 112.571 11.7598 111.38 11.5176 110.896C13.9596 110.088 16.2503 109.341 18.3896 108.655C20.5492 107.969 22.8197 107.323 25.2012 106.718C27.5827 106.092 29.8532 105.598 32.0127 105.234C34.1924 104.871 36.3317 104.689 38.4307 104.689C40.0654 104.689 41.569 104.821 42.9414 105.083C44.3138 105.325 45.6055 105.739 46.8164 106.324C48.0475 106.91 49.1374 107.697 50.0859 108.686C51.0547 109.654 51.8418 110.805 52.4473 112.137C52.6895 112.682 52.8105 113.277 52.8105 113.923C52.8105 116.607 50.7822 120.391 46.7256 125.275C47.4723 125.376 48.6631 125.931 50.2979 126.94C51.9326 127.95 53.638 129.877 55.4141 132.723Z" fill="#FFCC03"/>
<path d="M84.8943 126.214C86.3273 126.981 87.4878 128.02 88.3758 129.332C89.284 130.624 89.9399 132.087 90.3436 133.722C90.7674 135.336 90.9793 137.021 90.9793 138.777C90.9793 140.23 90.8582 141.633 90.616 142.985C90.394 144.338 90.0812 145.579 89.6775 146.709C89.2739 147.839 88.7996 148.798 88.2547 149.585C86.9832 151.482 85.6209 153.117 84.1678 154.489C82.7146 155.862 81.2312 156.972 79.7176 157.819C78.2039 158.647 76.7003 159.252 75.2068 159.636C73.7335 160.039 72.2703 160.241 70.8172 160.241C69.1017 160.241 67.4669 159.969 65.9129 159.424C64.379 158.899 63.0672 158.203 61.9773 157.335C60.1811 155.841 58.7785 153.833 57.7693 151.311C56.7602 148.768 56.2557 146.083 56.2557 143.258C56.2557 138.394 57.6583 134.468 60.4637 131.481C62.8654 128.918 65.3478 126.991 67.9109 125.699C70.4741 124.387 73.0978 123.731 75.782 123.731C77.3562 123.731 78.8699 123.933 80.323 124.337C81.7762 124.72 83.2999 125.346 84.8943 126.214ZM83.1082 131.3C82.7651 132.834 82.0184 134.186 80.868 135.356C79.7378 136.527 78.6277 137.112 77.5379 137.112C76.993 137.112 76.5086 136.971 76.0848 136.688C75.4793 136.204 75.1766 135.356 75.1766 134.146C75.1766 133.217 75.4793 132.299 76.0848 131.391C76.7104 130.482 77.6893 129.766 79.0213 129.241C77.6893 129.241 76.3976 129.493 75.1463 129.998C73.9152 130.503 72.8556 131.159 71.9676 131.966C71.0796 132.753 70.3631 133.651 69.8182 134.66C69.2934 135.649 69.0311 136.648 69.0311 137.657C69.0311 139.534 69.8989 141.028 71.6346 142.138C73.2492 143.167 74.783 143.682 76.2361 143.682C77.6691 143.682 78.9406 143.207 80.0506 142.259C81.1606 141.29 82.0083 140.059 82.5936 138.565C83.1788 137.052 83.4715 135.558 83.4715 134.085C83.4715 133.076 83.3504 132.147 83.1082 131.3Z" fill="#FFCC03"/>
<path d="M122.094 126.214C123.527 126.981 124.688 128.02 125.576 129.332C126.484 130.624 127.14 132.087 127.544 133.722C127.967 135.336 128.179 137.021 128.179 138.777C128.179 140.23 128.058 141.633 127.816 142.985C127.594 144.338 127.281 145.579 126.878 146.709C126.474 147.839 126 148.798 125.455 149.585C124.183 151.482 122.821 153.117 121.368 154.489C119.915 155.862 118.431 156.972 116.918 157.819C115.404 158.647 113.9 159.252 112.407 159.636C110.934 160.039 109.47 160.241 108.017 160.241C106.302 160.241 104.667 159.969 103.113 159.424C101.579 158.899 100.267 158.203 99.1773 157.335C97.3811 155.841 95.9785 153.833 94.9693 151.311C93.9602 148.768 93.4557 146.083 93.4557 143.258C93.4557 138.394 94.8583 134.468 97.6637 131.481C100.065 128.918 102.548 126.991 105.111 125.699C107.674 124.387 110.298 123.731 112.982 123.731C114.556 123.731 116.07 123.933 117.523 124.337C118.976 124.72 120.5 125.346 122.094 126.214ZM120.308 131.3C119.965 132.834 119.218 134.186 118.068 135.356C116.938 136.527 115.828 137.112 114.738 137.112C114.193 137.112 113.709 136.971 113.285 136.688C112.679 136.204 112.377 135.356 112.377 134.146C112.377 133.217 112.679 132.299 113.285 131.391C113.91 130.482 114.889 129.766 116.221 129.241C114.889 129.241 113.598 129.493 112.346 129.998C111.115 130.503 110.056 131.159 109.168 131.966C108.28 132.753 107.563 133.651 107.018 134.66C106.493 135.649 106.231 136.648 106.231 137.657C106.231 139.534 107.099 141.028 108.835 142.138C110.449 143.167 111.983 143.682 113.436 143.682C114.869 143.682 116.141 143.207 117.251 142.259C118.361 141.29 119.208 140.059 119.794 138.565C120.379 137.052 120.671 135.558 120.671 134.085C120.671 133.076 120.55 132.147 120.308 131.3Z" fill="#FFCC03"/>
<path d="M137.528 105.931L150.757 99.9668L150.545 120.311L160.414 120.553V132.208L150.182 132.329C149.819 135.195 149.637 137.889 149.637 140.412C149.637 142.511 149.758 144.247 150 145.619C150.202 146.749 150.707 147.617 151.514 148.223C152.321 148.828 153.26 149.131 154.329 149.131C155.52 149.131 156.56 148.778 157.448 148.071C158.356 147.365 158.81 146.396 158.81 145.165C158.81 144.983 158.77 144.63 158.689 144.105L168.588 137.657C169.012 138.444 169.537 139.766 170.163 141.623C170.808 143.48 171.131 145.508 171.131 147.708C171.131 150.352 170.435 152.743 169.042 154.883C167.65 157.022 165.268 158.647 161.898 159.757C159.537 160.524 157.306 160.907 155.207 160.907C152.039 160.907 149.244 160.211 146.822 158.818C144.42 157.426 142.422 155.751 140.828 153.793C140.081 152.885 139.496 151.381 139.072 149.282C138.668 147.183 138.406 144.993 138.285 142.713C138.163 140.432 138.103 138.152 138.103 135.871V132.45L129.172 132.723L126.932 119.069L138.224 119.826L137.528 105.931Z" fill="#FFCC03"/>
<path d="M203.003 123.035C204.295 123.863 205.455 125.013 206.485 126.486C207.534 127.939 208.341 129.292 208.906 130.543C209.472 131.774 209.845 132.662 210.027 133.207L198.795 135.689C198.613 134.68 198.079 134.014 197.191 133.691C196.303 133.368 195.374 133.207 194.405 133.207C189.279 133.691 186.716 136.749 186.716 142.38C186.857 146.84 188.26 149.323 190.924 149.827C192.196 149.827 193.346 149.514 194.375 148.889C195.404 148.263 196.282 147.436 197.009 146.406C197.756 145.357 198.371 144.186 198.856 142.895L210.087 145.165C209.966 145.569 209.673 146.376 209.209 147.587C208.684 148.939 207.453 150.745 205.516 153.006C203.599 155.266 201.459 156.851 199.098 157.759C196.252 158.869 193.427 159.424 190.621 159.424C186.141 159.424 182.165 157.961 178.694 155.034C177.119 153.662 175.979 152.067 175.273 150.251C174.546 148.435 174.183 146.517 174.183 144.499C174.183 142.4 174.475 140.331 175.061 138.293C175.646 136.255 176.363 134.398 177.21 132.723C178.32 130.543 179.541 128.686 180.873 127.152C182.205 125.598 183.598 124.337 185.051 123.368C186.524 122.379 188.028 121.653 189.562 121.188C191.096 120.724 192.64 120.492 194.194 120.492C197.382 120.492 200.319 121.34 203.003 123.035Z" fill="#FFCC03"/>
<path d="M234.088 129.362C232.978 129.504 231.878 129.857 230.788 130.422C229.718 130.987 228.8 131.653 228.033 132.42C227.266 133.187 226.661 134.035 226.217 134.963C225.793 135.871 225.581 136.769 225.581 137.657C225.581 139.494 226.449 140.987 228.185 142.138C229.718 143.167 231.272 143.682 232.847 143.682C233.149 143.682 233.563 143.641 234.088 143.561V137.112C233.543 137.112 233.059 136.971 232.635 136.688C232.029 136.204 231.727 135.276 231.727 133.903C231.727 131.925 232.514 130.412 234.088 129.362ZM234.33 124.034L246.984 118.343L247.227 135.266C247.388 136.315 247.469 137.506 247.469 138.838C247.469 140.008 247.428 140.876 247.348 141.441L247.711 159.999L234.088 160.726V158.879C231.868 159.787 229.628 160.241 227.367 160.241C225.632 160.241 223.997 159.979 222.463 159.454C220.949 158.929 219.637 158.223 218.527 157.335C216.731 155.841 215.328 153.833 214.319 151.311C213.31 148.768 212.806 146.083 212.806 143.258C212.806 138.394 214.208 134.468 217.014 131.481C219.436 128.938 221.928 127.011 224.491 125.699C227.075 124.387 229.708 123.731 232.393 123.731C233.139 123.731 233.704 123.752 234.088 123.792L234.33 124.034Z" fill="#FFCC03"/>
<path d="M278.584 124.276C283.811 122.621 287.696 121.794 290.239 121.794C292.257 121.794 293.993 122.208 295.446 123.035C297.242 124.064 299.18 125.82 301.259 128.303C303.337 130.785 304.629 133.086 305.134 135.205C306.203 139.504 306.738 143.258 306.738 146.467C306.738 148.162 306.627 149.948 306.405 151.825C306.183 153.682 305.84 156.074 305.376 159L292.721 159.757C292.762 158.748 292.782 157.295 292.782 155.397C292.782 147.486 291.692 140.755 289.513 135.205C289.109 134.216 288.635 133.439 288.09 132.874C287.545 132.309 287.06 132.026 286.637 132.026C286.193 132.026 285.971 132.339 285.971 132.965C285.971 133.328 286.011 133.641 286.092 133.903C286.233 134.226 286.374 134.66 286.515 135.205C287.605 139.585 288.15 143.339 288.15 146.467C288.15 148.001 288.049 149.615 287.847 151.311C287.646 152.986 287.292 155.549 286.788 159L274.134 159.757C274.174 158.748 274.194 157.295 274.194 155.397C274.194 147.466 273.094 140.735 270.894 135.205C270.632 134.559 270.43 133.883 270.289 133.177C270.148 132.45 270.047 132.087 269.986 132.087C269.905 132.087 269.673 132.561 269.29 133.51C268.906 134.458 268.493 135.437 268.049 136.446C267.746 137.153 267.494 137.96 267.292 138.868C267.11 139.776 266.969 140.796 266.868 141.926C266.787 143.056 266.747 144.388 266.747 145.922C266.747 149.03 266.929 152.976 267.292 157.759L252.428 159.484C252.185 157.708 251.963 155.942 251.762 154.187C251.56 152.431 251.398 150.806 251.277 149.312C251.176 147.799 251.126 146.174 251.126 144.438C251.126 143.692 251.166 142.612 251.247 141.199L250.702 123.55L262.599 122.036L264.325 124.034C267.514 123.005 270.117 122.49 272.136 122.49C274.376 122.49 276.525 123.086 278.584 124.276Z" fill="#FFCC03"/>
<path d="M323.261 160.181L324.745 184.551L311.122 185.277L309.063 145.982V145.68C308.982 144.671 308.942 143.924 308.942 143.439L308.397 132.723L303.917 133.691L305.4 126.274L320.779 119.826L321.172 125.396C323.574 124.246 326.006 123.671 328.468 123.671C331.455 123.671 334.493 124.519 337.581 126.214C339.014 126.981 340.174 128.02 341.062 129.332C341.97 130.624 342.626 132.087 343.03 133.722C343.454 135.336 343.666 137.021 343.666 138.777C343.666 140.23 343.545 141.633 343.302 142.985C343.08 144.338 342.768 145.579 342.364 146.709C341.96 147.839 341.486 148.798 340.941 149.585C339.246 152.128 337.399 154.187 335.401 155.761C333.403 157.335 331.395 158.465 329.377 159.151C327.358 159.838 325.32 160.181 323.261 160.181ZM321.838 136.567C321.838 137.698 322.091 138.808 322.595 139.897C323.12 140.967 323.695 141.714 324.321 142.138C325.935 143.167 327.469 143.682 328.922 143.682C330.355 143.682 331.627 143.207 332.737 142.259C333.847 141.29 334.695 140.059 335.28 138.565C335.865 137.052 336.158 135.558 336.158 134.085C336.158 133.076 336.037 132.147 335.795 131.3C335.451 132.834 334.705 134.186 333.554 135.356C332.424 136.527 331.314 137.112 330.224 137.112C329.679 137.112 329.195 136.971 328.771 136.688C328.166 136.204 327.863 135.356 327.863 134.146C327.863 133.217 328.166 132.299 328.771 131.391C329.397 130.482 330.376 129.766 331.708 129.241C330.073 129.241 328.559 129.594 327.167 130.301C325.774 130.987 324.593 131.905 323.625 133.056C322.676 134.206 322.081 135.377 321.838 136.567Z" fill="#FFCC03"/>
<path d="M36.8262 53.6543L34.5859 52.6553L38.0674 44.7236L55.1719 51.1719L51.2061 84.6543L35.8271 83.4131C36.3721 81.7581 37.139 79.3867 38.1279 76.2988C39.1169 73.2311 39.7526 71.223 40.0352 70.2744C38.7233 70.9202 36.0794 71.2432 32.1035 71.2432C28.2891 71.2432 24.9287 70.5267 22.0225 69.0938C19.1364 67.6406 16.765 65.1683 14.9082 61.6768C13.0514 58.165 11.9212 53.4222 11.5176 47.4482C11.4772 46.863 11.457 45.9749 11.457 44.7842C11.457 41.7972 11.8102 38.9313 12.5166 36.1865C13.2028 33.4417 14.333 30.9694 15.9072 28.7695C17.5016 26.5495 19.6914 24.7432 22.4766 23.3506C25.2617 21.958 28.6322 21.2314 32.5879 21.1709C35.2116 21.1709 37.7949 21.4837 40.3379 22.1094C42.8809 22.7148 45.2119 23.5726 47.3311 24.6826C49.4502 25.7725 51.2666 27.1146 52.7803 28.709C54.3141 30.2832 55.3132 31.9785 55.7773 33.7949L42.2148 42.665C41.3066 40.4046 38.2692 39.2744 33.1025 39.2744C31.932 39.2744 30.7311 40.112 29.5 41.7871C28.2689 43.4622 27.6533 45.3493 27.6533 47.4482C27.7542 49.0426 28.2285 50.5765 29.0762 52.0498C29.9238 53.5029 31.4274 54.2799 33.5869 54.3809C33.7686 54.3809 34.0814 54.3304 34.5254 54.2295C34.9896 54.1084 35.3932 54.0075 35.7363 53.9268C36.0996 53.8258 36.4629 53.735 36.8262 53.6543Z" stroke="#356ABC" stroke-width="16" mask="url(#path-1-outside-1)"/>
<path d="M74.2986 79.6895L60.6453 80.4463L57.9207 27.8613L53.4705 28.8604L54.9539 21.4131L70.3328 14.9648L74.2986 79.6895Z" stroke="#356ABC" stroke-width="16" mask="url(#path-1-outside-1)"/>
<path d="M106.594 39.2139C108.027 39.9808 109.188 41.0202 110.076 42.332C110.984 43.6237 111.64 45.0869 112.044 46.7217C112.467 48.3363 112.679 50.0215 112.679 51.7773C112.679 53.2305 112.558 54.6331 112.316 55.9854C112.094 57.3376 111.781 58.5788 111.378 59.709C110.974 60.8392 110.5 61.7979 109.955 62.585C108.683 64.4821 107.321 66.1169 105.868 67.4893C104.415 68.8617 102.931 69.9717 101.418 70.8193C99.9039 71.6468 98.4003 72.2523 96.9068 72.6357C95.4335 73.0394 93.9703 73.2412 92.5172 73.2412C90.8017 73.2412 89.1669 72.9688 87.6129 72.4238C86.079 71.8991 84.7672 71.2028 83.6773 70.335C81.8811 68.8415 80.4785 66.8333 79.4693 64.3105C78.4602 61.7676 77.9557 59.0833 77.9557 56.2578C77.9557 51.3939 79.3583 47.4684 82.1637 44.4814C84.5654 41.9183 87.0478 39.9909 89.6109 38.6992C92.1741 37.3874 94.7978 36.7314 97.482 36.7314C99.0563 36.7314 100.57 36.9333 102.023 37.3369C103.476 37.7204 105 38.346 106.594 39.2139ZM104.808 44.2998C104.465 45.8337 103.718 47.1859 102.568 48.3564C101.438 49.527 100.328 50.1123 99.2379 50.1123C98.693 50.1123 98.2086 49.971 97.7848 49.6885C97.1793 49.2041 96.8766 48.3564 96.8766 47.1455C96.8766 46.2171 97.1793 45.2988 97.7848 44.3906C98.4104 43.4824 99.3893 42.766 100.721 42.2412C99.3893 42.2412 98.0976 42.4935 96.8463 42.998C95.6152 43.5026 94.5556 44.1585 93.6676 44.9658C92.7796 45.7529 92.0631 46.651 91.5182 47.6602C90.9934 48.6491 90.7311 49.6481 90.7311 50.6572C90.7311 52.5342 91.5989 54.0277 93.3346 55.1377C94.9492 56.167 96.483 56.6816 97.9361 56.6816C99.3691 56.6816 100.641 56.2074 101.751 55.2588C102.861 54.29 103.708 53.0589 104.294 51.5654C104.879 50.0518 105.171 48.5583 105.171 47.085C105.171 46.0758 105.05 45.1475 104.808 44.2998Z" stroke="#356ABC" stroke-width="16" mask="url(#path-1-outside-1)"/>
<path d="M129.99 71.4551V72.4844L116.336 73.2412L116.821 27.8613L112.371 28.8604L113.854 21.4131L129.233 14.9648L129.475 36.3379C131.756 35.3893 133.966 34.915 136.105 34.915C139.072 34.915 142.129 35.7627 145.278 37.458C147.377 38.5882 148.911 40.2835 149.879 42.5439C150.868 44.7842 151.363 47.2868 151.363 50.0518C151.363 51.5049 151.242 52.9076 150.999 54.2598C150.777 55.5918 150.465 56.8229 150.061 57.9531C149.657 59.0833 149.183 60.042 148.638 60.8291C146.943 63.3317 145.106 65.3802 143.128 66.9746C141.171 68.569 139.193 69.7295 137.195 70.4561C135.197 71.1624 133.209 71.5156 131.231 71.5156C131.029 71.4954 130.837 71.4854 130.656 71.4854C130.494 71.4652 130.272 71.4551 129.99 71.4551ZM129.657 47.2666L129.717 50.4756C130.06 51.6462 130.827 52.625 132.018 53.4121C133.673 54.4414 135.207 54.9561 136.62 54.9561C138.052 54.9561 139.324 54.4818 140.434 53.5332C141.544 52.5645 142.392 51.3333 142.977 49.8398C143.562 48.3262 143.855 46.8226 143.855 45.3291C143.855 44.3604 143.734 43.432 143.492 42.5439C143.128 44.098 142.382 45.4603 141.251 46.6309C140.121 47.8014 139.011 48.3867 137.921 48.3867C137.356 48.3867 136.882 48.2354 136.498 47.9326C135.873 47.4886 135.56 46.641 135.56 45.3896C135.56 44.4411 135.853 43.5228 136.438 42.6348C137.043 41.7467 138.032 41.0404 139.405 40.5156C137.871 40.5156 136.418 40.8285 135.045 41.4541C133.673 42.0798 132.512 42.9173 131.564 43.9668C130.635 44.9961 130 46.096 129.657 47.2666Z" stroke="#356ABC" stroke-width="16" mask="url(#path-1-outside-1)"/>
<path d="M175.212 42.3623C174.102 42.5036 173.002 42.8568 171.912 43.4219C170.843 43.987 169.924 44.653 169.157 45.4199C168.39 46.1868 167.785 47.0345 167.341 47.9629C166.917 48.8711 166.705 49.7692 166.705 50.6572C166.705 52.4938 167.573 53.9873 169.309 55.1377C170.843 56.167 172.397 56.6816 173.971 56.6816C174.274 56.6816 174.687 56.6413 175.212 56.5605V50.1123C174.667 50.1123 174.183 49.971 173.759 49.6885C173.154 49.2041 172.851 48.2757 172.851 46.9033C172.851 44.9255 173.638 43.4118 175.212 42.3623ZM175.454 37.0342L188.109 31.3428L188.351 48.2656C188.512 49.3151 188.593 50.5059 188.593 51.8379C188.593 53.0085 188.553 53.8763 188.472 54.4414L188.835 72.999L175.212 73.7256V71.8789C172.992 72.7871 170.752 73.2412 168.491 73.2412C166.756 73.2412 165.121 72.9788 163.587 72.4541C162.073 71.9294 160.762 71.223 159.652 70.335C157.855 68.8415 156.453 66.8333 155.444 64.3105C154.434 61.7676 153.93 59.0833 153.93 56.2578C153.93 51.3939 155.333 47.4684 158.138 44.4814C160.56 41.9385 163.052 40.0111 165.615 38.6992C168.199 37.3874 170.833 36.7314 173.517 36.7314C174.264 36.7314 174.829 36.7516 175.212 36.792L175.454 37.0342Z" stroke="#356ABC" stroke-width="16" mask="url(#path-1-outside-1)"/>
<path d="M205.449 37.0342C207.689 36.2874 209.617 35.7223 211.231 35.3389C212.846 34.9352 214.39 34.7334 215.863 34.7334C217.841 34.7334 219.577 35.1673 221.07 36.0352C222.867 37.0645 224.804 38.8203 226.883 41.3027C228.962 43.7852 230.253 46.0859 230.758 48.2051C231.827 52.5039 232.362 56.2578 232.362 59.4668C232.362 61.1621 232.251 62.9482 232.029 64.8252C231.807 66.682 231.464 69.0736 231 72L218.346 72.7568C218.386 71.7477 218.406 70.2946 218.406 68.3975C218.406 60.486 217.316 53.7552 215.137 48.2051C214.289 46.1263 213.462 45.0869 212.654 45.0869C211.605 45.0869 210.444 46.54 209.173 49.4463C208.87 50.1527 208.618 50.96 208.416 51.8682C208.234 52.7764 208.093 53.7956 207.992 54.9258C207.911 56.056 207.871 57.388 207.871 58.9219C207.871 62.0299 208.053 65.9756 208.416 70.7588L193.552 72.4844C193.31 70.7083 193.088 68.9424 192.886 67.1865C192.684 65.4307 192.522 63.806 192.401 62.3125C192.3 60.7988 192.25 59.1742 192.25 57.4385C192.25 56.6917 192.29 55.612 192.371 54.1992L191.826 36.5498L203.724 35.0361L205.449 37.0342Z" stroke="#356ABC" stroke-width="16" mask="url(#path-1-outside-1)"/>
<path d="M241.438 18.9307L254.668 12.9668L254.456 33.3105L264.325 33.5527V45.208L254.093 45.3291C253.729 48.195 253.548 50.8893 253.548 53.4121C253.548 55.5111 253.669 57.2467 253.911 58.6191C254.113 59.7493 254.617 60.6172 255.425 61.2227C256.232 61.8281 257.17 62.1309 258.24 62.1309C259.431 62.1309 260.47 61.7777 261.358 61.0713C262.266 60.3649 262.721 59.3962 262.721 58.165C262.721 57.9834 262.68 57.6302 262.599 57.1055L272.499 50.6572C272.923 51.4443 273.447 52.7663 274.073 54.623C274.719 56.4798 275.042 58.5081 275.042 60.708C275.042 63.3519 274.346 65.7435 272.953 67.8828C271.56 70.0221 269.179 71.6468 265.808 72.7568C263.447 73.5238 261.217 73.9072 259.118 73.9072C255.949 73.9072 253.154 73.2109 250.732 71.8184C248.331 70.4258 246.332 68.7507 244.738 66.793C243.991 65.8848 243.406 64.3812 242.982 62.2822C242.579 60.1833 242.316 57.9935 242.195 55.7129C242.074 53.4323 242.013 51.1517 242.013 48.8711V45.4502L233.083 45.7227L230.843 32.0693L242.135 32.8262L241.438 18.9307Z" stroke="#356ABC" stroke-width="16" mask="url(#path-1-outside-1)"/>
<path d="M30.6201 116.587L33.1025 129.998C33.8291 129.372 34.929 128.343 36.4023 126.91C37.8958 125.477 39.3691 123.842 40.8223 122.006C42.2754 120.149 43.002 118.635 43.002 117.465C43.002 116.516 42.4268 115.891 41.2764 115.588C40.3076 115.386 39.4196 115.285 38.6123 115.285C37.583 115.285 36.5739 115.376 35.585 115.558C34.596 115.719 32.9411 116.062 30.6201 116.587ZM37.5527 145.861C40.6003 144.59 42.5983 143.339 43.5469 142.107C44.5156 140.856 45 139.706 45 138.656C45 137.788 44.3844 136.699 43.1533 135.387C41.9424 134.075 40.9837 133.348 40.2773 133.207C39.3691 134.115 38.5215 134.812 37.7344 135.296C36.9473 135.76 36.3923 136.053 36.0693 136.174L37.5527 145.861ZM55.4141 132.723C57.4727 135.972 58.502 139.05 58.502 141.956C58.502 145.528 57.1296 148.525 54.3848 150.947C51.6602 153.369 48.9255 155.115 46.1807 156.185C43.4359 157.254 41.3874 157.94 40.0352 158.243L29.6211 160.998L19.6914 121.31C19.5501 121.31 19.3079 121.491 18.9648 121.854C18.6419 122.218 18.2181 122.722 17.6934 123.368C17.1888 123.994 16.8659 124.377 16.7246 124.519C16.6641 124.519 16.4622 124.085 16.1191 123.217C15.7962 122.349 15.3522 121.148 14.7871 119.614C14.2422 118.06 13.6266 116.345 12.9404 114.468C12.234 112.571 11.7598 111.38 11.5176 110.896C13.9596 110.088 16.2503 109.341 18.3896 108.655C20.5492 107.969 22.8197 107.323 25.2012 106.718C27.5827 106.092 29.8532 105.598 32.0127 105.234C34.1924 104.871 36.3317 104.689 38.4307 104.689C40.0654 104.689 41.569 104.821 42.9414 105.083C44.3138 105.325 45.6055 105.739 46.8164 106.324C48.0475 106.91 49.1374 107.697 50.0859 108.686C51.0547 109.654 51.8418 110.805 52.4473 112.137C52.6895 112.682 52.8105 113.277 52.8105 113.923C52.8105 116.607 50.7822 120.391 46.7256 125.275C47.4723 125.376 48.6631 125.931 50.2979 126.94C51.9326 127.95 53.638 129.877 55.4141 132.723Z" stroke="#356ABC" stroke-width="16" mask="url(#path-1-outside-1)"/>
<path d="M84.8943 126.214C86.3273 126.981 87.4878 128.02 88.3758 129.332C89.284 130.624 89.9399 132.087 90.3436 133.722C90.7674 135.336 90.9793 137.021 90.9793 138.777C90.9793 140.23 90.8582 141.633 90.616 142.985C90.394 144.338 90.0812 145.579 89.6775 146.709C89.2739 147.839 88.7996 148.798 88.2547 149.585C86.9832 151.482 85.6209 153.117 84.1678 154.489C82.7146 155.862 81.2312 156.972 79.7176 157.819C78.2039 158.647 76.7003 159.252 75.2068 159.636C73.7335 160.039 72.2703 160.241 70.8172 160.241C69.1017 160.241 67.4669 159.969 65.9129 159.424C64.379 158.899 63.0672 158.203 61.9773 157.335C60.1811 155.841 58.7785 153.833 57.7693 151.311C56.7602 148.768 56.2557 146.083 56.2557 143.258C56.2557 138.394 57.6583 134.468 60.4637 131.481C62.8654 128.918 65.3478 126.991 67.9109 125.699C70.4741 124.387 73.0978 123.731 75.782 123.731C77.3562 123.731 78.8699 123.933 80.323 124.337C81.7762 124.72 83.2999 125.346 84.8943 126.214ZM83.1082 131.3C82.7651 132.834 82.0184 134.186 80.868 135.356C79.7378 136.527 78.6277 137.112 77.5379 137.112C76.993 137.112 76.5086 136.971 76.0848 136.688C75.4793 136.204 75.1766 135.356 75.1766 134.146C75.1766 133.217 75.4793 132.299 76.0848 131.391C76.7104 130.482 77.6893 129.766 79.0213 129.241C77.6893 129.241 76.3976 129.493 75.1463 129.998C73.9152 130.503 72.8556 131.159 71.9676 131.966C71.0796 132.753 70.3631 133.651 69.8182 134.66C69.2934 135.649 69.0311 136.648 69.0311 137.657C69.0311 139.534 69.8989 141.028 71.6346 142.138C73.2492 143.167 74.783 143.682 76.2361 143.682C77.6691 143.682 78.9406 143.207 80.0506 142.259C81.1606 141.29 82.0083 140.059 82.5936 138.565C83.1788 137.052 83.4715 135.558 83.4715 134.085C83.4715 133.076 83.3504 132.147 83.1082 131.3Z" stroke="#356ABC" stroke-width="16" mask="url(#path-1-outside-1)"/>
<path d="M122.094 126.214C123.527 126.981 124.688 128.02 125.576 129.332C126.484 130.624 127.14 132.087 127.544 133.722C127.967 135.336 128.179 137.021 128.179 138.777C128.179 140.23 128.058 141.633 127.816 142.985C127.594 144.338 127.281 145.579 126.878 146.709C126.474 147.839 126 148.798 125.455 149.585C124.183 151.482 122.821 153.117 121.368 154.489C119.915 155.862 118.431 156.972 116.918 157.819C115.404 158.647 113.9 159.252 112.407 159.636C110.934 160.039 109.47 160.241 108.017 160.241C106.302 160.241 104.667 159.969 103.113 159.424C101.579 158.899 100.267 158.203 99.1773 157.335C97.3811 155.841 95.9785 153.833 94.9693 151.311C93.9602 148.768 93.4557 146.083 93.4557 143.258C93.4557 138.394 94.8583 134.468 97.6637 131.481C100.065 128.918 102.548 126.991 105.111 125.699C107.674 124.387 110.298 123.731 112.982 123.731C114.556 123.731 116.07 123.933 117.523 124.337C118.976 124.72 120.5 125.346 122.094 126.214ZM120.308 131.3C119.965 132.834 119.218 134.186 118.068 135.356C116.938 136.527 115.828 137.112 114.738 137.112C114.193 137.112 113.709 136.971 113.285 136.688C112.679 136.204 112.377 135.356 112.377 134.146C112.377 133.217 112.679 132.299 113.285 131.391C113.91 130.482 114.889 129.766 116.221 129.241C114.889 129.241 113.598 129.493 112.346 129.998C111.115 130.503 110.056 131.159 109.168 131.966C108.28 132.753 107.563 133.651 107.018 134.66C106.493 135.649 106.231 136.648 106.231 137.657C106.231 139.534 107.099 141.028 108.835 142.138C110.449 143.167 111.983 143.682 113.436 143.682C114.869 143.682 116.141 143.207 117.251 142.259C118.361 141.29 119.208 140.059 119.794 138.565C120.379 137.052 120.671 135.558 120.671 134.085C120.671 133.076 120.55 132.147 120.308 131.3Z" stroke="#356ABC" stroke-width="16" mask="url(#path-1-outside-1)"/>
<path d="M137.528 105.931L150.757 99.9668L150.545 120.311L160.414 120.553V132.208L150.182 132.329C149.819 135.195 149.637 137.889 149.637 140.412C149.637 142.511 149.758 144.247 150 145.619C150.202 146.749 150.707 147.617 151.514 148.223C152.321 148.828 153.26 149.131 154.329 149.131C155.52 149.131 156.56 148.778 157.448 148.071C158.356 147.365 158.81 146.396 158.81 145.165C158.81 144.983 158.77 144.63 158.689 144.105L168.588 137.657C169.012 138.444 169.537 139.766 170.163 141.623C170.808 143.48 171.131 145.508 171.131 147.708C171.131 150.352 170.435 152.743 169.042 154.883C167.65 157.022 165.268 158.647 161.898 159.757C159.537 160.524 157.306 160.907 155.207 160.907C152.039 160.907 149.244 160.211 146.822 158.818C144.42 157.426 142.422 155.751 140.828 153.793C140.081 152.885 139.496 151.381 139.072 149.282C138.668 147.183 138.406 144.993 138.285 142.713C138.163 140.432 138.103 138.152 138.103 135.871V132.45L129.172 132.723L126.932 119.069L138.224 119.826L137.528 105.931Z" stroke="#356ABC" stroke-width="16" mask="url(#path-1-outside-1)"/>
<path d="M203.003 123.035C204.295 123.863 205.455 125.013 206.485 126.486C207.534 127.939 208.341 129.292 208.906 130.543C209.472 131.774 209.845 132.662 210.027 133.207L198.795 135.689C198.613 134.68 198.079 134.014 197.191 133.691C196.303 133.368 195.374 133.207 194.405 133.207C189.279 133.691 186.716 136.749 186.716 142.38C186.857 146.84 188.26 149.323 190.924 149.827C192.196 149.827 193.346 149.514 194.375 148.889C195.404 148.263 196.282 147.436 197.009 146.406C197.756 145.357 198.371 144.186 198.856 142.895L210.087 145.165C209.966 145.569 209.673 146.376 209.209 147.587C208.684 148.939 207.453 150.745 205.516 153.006C203.599 155.266 201.459 156.851 199.098 157.759C196.252 158.869 193.427 159.424 190.621 159.424C186.141 159.424 182.165 157.961 178.694 155.034C177.119 153.662 175.979 152.067 175.273 150.251C174.546 148.435 174.183 146.517 174.183 144.499C174.183 142.4 174.475 140.331 175.061 138.293C175.646 136.255 176.363 134.398 177.21 132.723C178.32 130.543 179.541 128.686 180.873 127.152C182.205 125.598 183.598 124.337 185.051 123.368C186.524 122.379 188.028 121.653 189.562 121.188C191.096 120.724 192.64 120.492 194.194 120.492C197.382 120.492 200.319 121.34 203.003 123.035Z" stroke="#356ABC" stroke-width="16" mask="url(#path-1-outside-1)"/>
<path d="M234.088 129.362C232.978 129.504 231.878 129.857 230.788 130.422C229.718 130.987 228.8 131.653 228.033 132.42C227.266 133.187 226.661 134.035 226.217 134.963C225.793 135.871 225.581 136.769 225.581 137.657C225.581 139.494 226.449 140.987 228.185 142.138C229.718 143.167 231.272 143.682 232.847 143.682C233.149 143.682 233.563 143.641 234.088 143.561V137.112C233.543 137.112 233.059 136.971 232.635 136.688C232.029 136.204 231.727 135.276 231.727 133.903C231.727 131.925 232.514 130.412 234.088 129.362ZM234.33 124.034L246.984 118.343L247.227 135.266C247.388 136.315 247.469 137.506 247.469 138.838C247.469 140.008 247.428 140.876 247.348 141.441L247.711 159.999L234.088 160.726V158.879C231.868 159.787 229.628 160.241 227.367 160.241C225.632 160.241 223.997 159.979 222.463 159.454C220.949 158.929 219.637 158.223 218.527 157.335C216.731 155.841 215.328 153.833 214.319 151.311C213.31 148.768 212.806 146.083 212.806 143.258C212.806 138.394 214.208 134.468 217.014 131.481C219.436 128.938 221.928 127.011 224.491 125.699C227.075 124.387 229.708 123.731 232.393 123.731C233.139 123.731 233.704 123.752 234.088 123.792L234.33 124.034Z" stroke="#356ABC" stroke-width="16" mask="url(#path-1-outside-1)"/>
<path d="M278.584 124.276C283.811 122.621 287.696 121.794 290.239 121.794C292.257 121.794 293.993 122.208 295.446 123.035C297.242 124.064 299.18 125.82 301.259 128.303C303.337 130.785 304.629 133.086 305.134 135.205C306.203 139.504 306.738 143.258 306.738 146.467C306.738 148.162 306.627 149.948 306.405 151.825C306.183 153.682 305.84 156.074 305.376 159L292.721 159.757C292.762 158.748 292.782 157.295 292.782 155.397C292.782 147.486 291.692 140.755 289.513 135.205C289.109 134.216 288.635 133.439 288.09 132.874C287.545 132.309 287.06 132.026 286.637 132.026C286.193 132.026 285.971 132.339 285.971 132.965C285.971 133.328 286.011 133.641 286.092 133.903C286.233 134.226 286.374 134.66 286.515 135.205C287.605 139.585 288.15 143.339 288.15 146.467C288.15 148.001 288.049 149.615 287.847 151.311C287.646 152.986 287.292 155.549 286.788 159L274.134 159.757C274.174 158.748 274.194 157.295 274.194 155.397C274.194 147.466 273.094 140.735 270.894 135.205C270.632 134.559 270.43 133.883 270.289 133.177C270.148 132.45 270.047 132.087 269.986 132.087C269.905 132.087 269.673 132.561 269.29 133.51C268.906 134.458 268.493 135.437 268.049 136.446C267.746 137.153 267.494 137.96 267.292 138.868C267.11 139.776 266.969 140.796 266.868 141.926C266.787 143.056 266.747 144.388 266.747 145.922C266.747 149.03 266.929 152.976 267.292 157.759L252.428 159.484C252.185 157.708 251.963 155.942 251.762 154.187C251.56 152.431 251.398 150.806 251.277 149.312C251.176 147.799 251.126 146.174 251.126 144.438C251.126 143.692 251.166 142.612 251.247 141.199L250.702 123.55L262.599 122.036L264.325 124.034C267.514 123.005 270.117 122.49 272.136 122.49C274.376 122.49 276.525 123.086 278.584 124.276Z" stroke="#356ABC" stroke-width="16" mask="url(#path-1-outside-1)"/>
<path d="M323.261 160.181L324.745 184.551L311.122 185.277L309.063 145.982V145.68C308.982 144.671 308.942 143.924 308.942 143.439L308.397 132.723L303.917 133.691L305.4 126.274L320.779 119.826L321.172 125.396C323.574 124.246 326.006 123.671 328.468 123.671C331.455 123.671 334.493 124.519 337.581 126.214C339.014 126.981 340.174 128.02 341.062 129.332C341.97 130.624 342.626 132.087 343.03 133.722C343.454 135.336 343.666 137.021 343.666 138.777C343.666 140.23 343.545 141.633 343.302 142.985C343.08 144.338 342.768 145.579 342.364 146.709C341.96 147.839 341.486 148.798 340.941 149.585C339.246 152.128 337.399 154.187 335.401 155.761C333.403 157.335 331.395 158.465 329.377 159.151C327.358 159.838 325.32 160.181 323.261 160.181ZM321.838 136.567C321.838 137.698 322.091 138.808 322.595 139.897C323.12 140.967 323.695 141.714 324.321 142.138C325.935 143.167 327.469 143.682 328.922 143.682C330.355 143.682 331.627 143.207 332.737 142.259C333.847 141.29 334.695 140.059 335.28 138.565C335.865 137.052 336.158 135.558 336.158 134.085C336.158 133.076 336.037 132.147 335.795 131.3C335.451 132.834 334.705 134.186 333.554 135.356C332.424 136.527 331.314 137.112 330.224 137.112C329.679 137.112 329.195 136.971 328.771 136.688C328.166 136.204 327.863 135.356 327.863 134.146C327.863 133.217 328.166 132.299 328.771 131.391C329.397 130.482 330.376 129.766 331.708 129.241C330.073 129.241 328.559 129.594 327.167 130.301C325.774 130.987 324.593 131.905 323.625 133.056C322.676 134.206 322.081 135.377 321.838 136.567Z" stroke="#356ABC" stroke-width="16" mask="url(#path-1-outside-1)"/>
</svg>
