<svg width="50" height="50" viewBox="0 0 50 50" fill="none" xmlns="http://www.w3.org/2000/svg">
<path d="M18.5714 0C23.4969 0 28.2206 1.95663 31.7034 5.43945C35.1862 8.92226 37.1429 13.646 37.1429 18.5714C37.1429 23.1714 35.4571 27.4 32.6857 30.6571L33.4571 31.4286H35.7143L50 45.7143L45.7143 50L31.4286 35.7143V33.4571L30.6571 32.6857C27.4 35.4571 23.1714 37.1429 18.5714 37.1429C13.646 37.1429 8.92226 35.1862 5.43945 31.7034C1.95663 28.2206 0 23.4969 0 18.5714C0 13.646 1.95663 8.92226 5.43945 5.43945C8.92226 1.95663 13.646 0 18.5714 0V0ZM18.5714 5.71429C11.4286 5.71429 5.71429 11.4286 5.71429 18.5714C5.71429 25.7143 11.4286 31.4286 18.5714 31.4286C25.7143 31.4286 31.4286 25.7143 31.4286 18.5714C31.4286 11.4286 25.7143 5.71429 18.5714 5.71429Z" fill="#356ABC"/>
</svg>
